<?xml version="1.0" encoding="UTF-8"?>
<svg width="363px" height="411px" viewBox="0 0 363 411" version="1.1" xmlns="http://www.w3.org/2000/svg" xmlns:xlink="http://www.w3.org/1999/xlink">
    <!-- Generator: Sketch 50 (54983) - http://www.bohemiancoding.com/sketch -->
    <title>symbol gradient</title>
    <desc>Created with Sketch.</desc>
    <defs>
        <linearGradient x1="24.0227534%" y1="15.3165957%" x2="84.5410146%" y2="84.0688607%" id="linearGradient-1">
            <stop stop-color="#FFE500" offset="0%"></stop>
            <stop stop-color="#006E21" offset="100%"></stop>
        </linearGradient>
    </defs>
    <g id="export" stroke="none" stroke-width="1" fill="none" fill-rule="evenodd">
        <g id="Apple-TV" transform="translate(-947.000000, -949.000000)" fill="url(#linearGradient-1)" fill-rule="nonzero">
            <path d="M1086.22697,1272.23308 C1092.99389,1272.23308 1098.63298,1277.87218 1098.63298,1284.6391 L1098.63298,1323.88722 C1098.63298,1330.65414 1092.99389,1336.29323 1086.22697,1336.29323 C1079.23449,1336.29323 1073.82095,1330.65414 1073.82095,1323.88722 L1073.82095,1284.6391 C1073.82095,1277.87218 1079.46005,1272.23308 1086.22697,1272.23308 Z M1045.3999,1265.01504 C1038.40742,1265.01504 1032.99389,1259.37594 1032.99389,1252.38346 L1033.21945,1203.43609 C1033.21945,1196.66917 1038.85855,1191.25564 1045.62546,1191.25564 C1045.62546,1191.25564 1045.62546,1191.25564 1045.85103,1191.25564 C1052.61795,1191.25564 1058.25704,1196.89474 1058.03148,1203.88722 L1057.80592,1252.83459 C1057.80592,1259.6015 1052.16682,1265.01504 1045.3999,1265.01504 Z M1254.04652,1207.49624 C1260.81343,1207.49624 1266.45253,1212.90977 1266.45253,1219.90226 L1266.6781,1276.06767 C1266.6781,1282.83459 1261.26456,1288.47368 1254.27208,1288.47368 C1247.50516,1288.47368 1241.86607,1283.06015 1241.86607,1276.06767 L1241.6405,1219.90226 C1241.6405,1213.13534 1247.05404,1207.49624 1254.04652,1207.49624 Z M1208.48261,1118.84962 L1129.53524,1072.15789 L1071.33975,1106.21805 L1129.08411,1140.50376 L1164.94877,1120.20301 C1170.81343,1116.81955 1178.48261,1118.84962 1181.86607,1124.93985 C1185.24952,1130.80451 1183.21945,1138.47368 1177.12922,1141.85714 L1134.94877,1165.76692 C1133.14426,1166.89474 1131.11419,1167.34586 1128.85855,1167.34586 C1126.60291,1167.34586 1124.57283,1166.66917 1122.54276,1165.54135 L1040.66306,1117.04511 C1036.82847,1114.78947 1034.57283,1110.72932 1034.57283,1106.44361 C1034.57283,1102.15789 1036.82847,1098.09774 1040.66306,1095.84211 L1123.21945,1047.34586 C1127.05404,1045.09023 1132.01644,1045.09023 1135.85103,1047.34586 L1221.11419,1097.64662 C1226.97885,1101.03008 1229.00892,1108.69925 1225.3999,1114.56391 C1222.01644,1120.42857 1214.34727,1122.45865 1208.48261,1118.84962 Z M1215.24952,1142.30827 C1222.01644,1142.30827 1227.65554,1147.94737 1227.42998,1154.93985 L1226.75328,1202.98496 C1226.75328,1207.27068 1224.49764,1211.33083 1220.66306,1213.58647 L1137.20441,1263.21053 C1134.94877,1264.11278 1132.9187,1264.56391 1130.66306,1264.56391 C1126.37734,1264.56391 1122.31719,1262.30827 1120.06155,1258.47368 C1116.45253,1252.60902 1118.48261,1244.93985 1124.34727,1241.55639 L1201.94125,1195.54135 L1202.61795,1154.48872 C1202.61795,1147.7218 1208.25704,1142.08271 1215.24952,1142.30827 Z M1081.26456,997.721805 C1075.3999,994.338346 1073.36983,986.669173 1076.75328,980.804511 C1080.13674,974.93985 1087.80592,972.909774 1093.67058,976.293233 L1178.93374,1024.78947 C1184.7984,1028.17293 1186.82847,1035.84211 1183.44501,1041.70677 C1180.96381,1045.76692 1176.90366,1047.79699 1172.61795,1047.79699 C1170.58787,1047.79699 1168.33223,1047.34586 1166.52772,1046.21805 L1081.26456,997.721805 Z M1150.73825,988.022556 C1144.87358,984.639098 1142.84351,976.969925 1146.22697,971.105263 C1149.61043,965.240602 1157.2796,963.210526 1163.14426,966.593985 L1197.42998,985.992481 C1203.29464,989.37594 1205.32471,997.045113 1201.94125,1002.90977 C1199.46005,1006.74436 1195.3999,1009 1191.11419,1009 C1189.08411,1009 1186.82847,1008.54887 1185.02396,1007.42105 L1150.73825,988.022556 Z M1297.35479,1081.63158 C1290.58787,1081.63158 1284.94877,1075.99248 1284.94877,1069.22556 L1284.94877,1065.16541 L1281.33975,1063.13534 L1259.46005,1050.50376 C1253.59539,1047.1203 1251.56531,1039.45113 1254.94877,1033.58647 C1258.33223,1027.7218 1266.0014,1025.69173 1271.86607,1029.07519 L1293.74577,1041.70677 L1303.44501,1047.34586 C1307.2796,1049.6015 1309.7608,1053.66165 1309.7608,1057.94737 L1309.7608,1069.22556 C1309.7608,1075.99248 1304.1217,1081.63158 1297.35479,1081.63158 Z M1297.35479,1089.75188 C1304.1217,1089.75188 1309.7608,1095.39098 1309.7608,1102.15789 L1309.7608,1127.19549 C1309.7608,1134.18797 1304.1217,1139.6015 1297.35479,1139.6015 C1290.58787,1139.6015 1284.94877,1133.96241 1284.94877,1127.19549 L1284.94877,1102.15789 C1284.94877,1095.39098 1290.58787,1089.75188 1297.35479,1089.75188 Z M1297.35479,1149.07519 C1304.1217,1149.07519 1309.7608,1154.71429 1309.7608,1161.4812 L1309.7608,1216.96992 C1309.7608,1223.73684 1304.1217,1229.37594 1297.35479,1229.37594 C1290.58787,1229.37594 1284.94877,1223.73684 1284.94877,1216.96992 L1284.94877,1161.4812 C1284.94877,1154.71429 1290.58787,1149.07519 1297.35479,1149.07519 Z M1220.21193,1049.37594 C1226.07659,1052.7594 1228.10667,1060.42857 1224.72321,1066.29323 C1222.46757,1070.12782 1218.18186,1072.38346 1213.89614,1072.38346 C1211.86607,1072.38346 1209.61043,1071.93233 1207.80592,1070.80451 L1198.10667,1065.16541 C1192.24201,1061.78195 1190.21193,1054.11278 1193.59539,1048.24812 C1196.97885,1042.38346 1204.64802,1040.35338 1210.51268,1043.73684 L1220.21193,1049.37594 Z M1247.73073,1029.75188 C1245.47509,1033.58647 1241.18937,1035.84211 1236.90366,1035.84211 C1234.87358,1035.84211 1232.61795,1035.39098 1230.81343,1034.26316 L1214.34727,1024.78947 C1208.48261,1021.40602 1206.45253,1013.73684 1209.83599,1007.87218 C1213.21945,1002.00752 1220.88862,999.977444 1226.75328,1003.3609 L1243.21945,1012.83459 C1249.08411,1016.21805 1251.11419,1023.88722 1247.73073,1029.75188 Z M1260.36231,1072.38346 C1264.19689,1074.6391 1266.45253,1078.69925 1266.6781,1082.98496 L1266.6781,1134.6391 C1266.6781,1141.40602 1261.26456,1146.81955 1254.27208,1147.04511 C1247.50516,1147.04511 1241.86607,1141.63158 1241.86607,1134.6391 L1241.86607,1090.20301 L1238.25704,1088.17293 C1232.39238,1084.78947 1230.36231,1077.1203 1233.74577,1071.25564 C1237.12922,1065.39098 1244.7984,1063.3609 1250.66306,1066.74436 L1260.36231,1072.38346 Z M1254.27208,1160.35338 C1261.039,1160.35338 1266.6781,1165.76692 1266.6781,1172.7594 L1266.6781,1184.03759 C1266.6781,1191.03008 1261.039,1196.44361 1254.27208,1196.44361 C1247.50516,1196.44361 1241.86607,1191.03008 1241.86607,1184.03759 L1241.86607,1172.7594 C1241.86607,1165.99248 1247.2796,1160.35338 1254.27208,1160.35338 Z M1037.95629,1020.50376 C1032.09163,1017.1203 1030.06155,1009.45113 1033.44501,1003.58647 C1036.82847,997.721805 1044.49764,995.691729 1050.36231,999.075188 L1053.5202,1000.8797 C1059.38486,1004.26316 1061.41494,1011.93233 1058.03148,1017.79699 C1055.77584,1021.63158 1051.71569,1023.88722 1047.42998,1023.88722 C1045.3999,1023.88722 1043.14426,1023.43609 1041.11419,1022.30827 L1037.95629,1020.50376 Z M1069.08411,1038.77444 C1063.21945,1035.39098 1061.18937,1027.7218 1064.57283,1021.85714 C1067.95629,1015.99248 1075.62546,1013.96241 1081.49013,1017.34586 L1101.33975,1029.07519 C1107.20441,1032.45865 1109.23449,1040.12782 1105.85103,1045.99248 C1103.59539,1049.82707 1099.53524,1052.08271 1095.24952,1052.08271 C1093.21945,1052.08271 1090.96381,1051.63158 1088.93374,1050.50376 L1069.08411,1038.77444 Z M1212.31719,1260.05263 C1219.08411,1260.05263 1224.72321,1265.69173 1224.72321,1272.45865 L1224.72321,1299.52632 C1224.72321,1306.29323 1219.30967,1311.93233 1212.31719,1311.93233 C1205.55028,1311.93233 1199.91118,1306.29323 1199.91118,1299.52632 L1199.91118,1272.45865 C1199.91118,1265.69173 1205.55028,1260.05263 1212.31719,1260.05263 Z M995.550276,1044.86466 C989.685615,1041.4812 987.65554,1033.81203 991.038998,1027.94737 C994.422457,1022.08271 1002.09163,1020.05263 1007.95629,1023.43609 L1047.20441,1046.89474 C1053.06907,1050.2782 1055.09915,1057.94737 1051.71569,1063.81203 C1049.46005,1067.64662 1045.17434,1069.90226 1040.88862,1069.90226 C1038.85855,1069.90226 1036.60291,1069.45113 1034.7984,1068.32331 L995.550276,1044.86466 Z M1171.26456,1252.15789 C1178.03148,1252.15789 1183.67058,1257.57143 1183.67058,1264.56391 L1183.67058,1291.40602 C1183.67058,1298.3985 1178.25704,1303.81203 1171.26456,1303.81203 C1164.49764,1303.81203 1158.85855,1298.3985 1158.85855,1291.40602 L1158.85855,1264.56391 C1158.85855,1257.79699 1164.27208,1252.15789 1171.26456,1252.15789 Z M1115.77584,1188.09774 C1115.77584,1181.33083 1121.18937,1175.69173 1128.18186,1175.69173 C1134.94877,1175.69173 1140.58787,1181.10526 1140.58787,1188.09774 L1140.58787,1214.93985 C1140.58787,1221.93233 1135.17434,1227.34586 1128.18186,1227.34586 C1121.41494,1227.34586 1115.77584,1221.93233 1115.77584,1214.93985 L1115.77584,1188.09774 Z M954.272081,1068.54887 C948.407419,1065.16541 946.377344,1057.49624 949.760803,1051.63158 C953.144261,1045.76692 960.813434,1043.73684 966.678096,1047.1203 L980.888622,1055.2406 C986.753284,1058.62406 988.783359,1066.29323 985.3999,1072.15789 C982.918697,1076.21805 978.858547,1078.24812 974.572833,1078.24812 C972.542758,1078.24812 970.287119,1077.79699 968.482607,1076.66917 L954.272081,1068.54887 Z M1030.28712,1097.87218 C1027.80592,1101.93233 1023.74577,1103.96241 1019.46005,1103.96241 C1017.42998,1103.96241 1015.17434,1103.51128 1013.36983,1102.38346 L1000.96381,1095.39098 C995.099149,1092.00752 993.069073,1084.33835 996.452532,1078.47368 C999.835991,1072.60902 1007.50516,1070.57895 1013.36983,1073.96241 L1025.77584,1080.95489 C1031.6405,1084.33835 1033.67058,1092.00752 1030.28712,1097.87218 Z M1128.18186,1306.06767 C1134.94877,1306.06767 1140.58787,1311.70677 1140.58787,1318.47368 L1140.58787,1347.34586 C1140.58787,1354.33835 1134.94877,1359.75188 1128.18186,1359.75188 C1121.18937,1359.75188 1115.77584,1354.11278 1115.77584,1347.34586 L1115.77584,1318.47368 C1115.77584,1311.70677 1121.41494,1306.06767 1128.18186,1306.06767 Z M1004.57283,1144.78947 C1002.54276,1144.78947 1000.28712,1144.33835 998.482607,1143.21053 L984.723209,1134.6391 C978.858547,1131.25564 976.828472,1123.58647 980.211931,1117.7218 C983.595389,1111.85714 991.264562,1109.82707 997.129224,1113.21053 L1010.88862,1121.78195 C1016.75328,1125.16541 1018.78336,1132.83459 1015.3999,1138.69925 C1012.9187,1142.53383 1008.85855,1144.78947 1004.57283,1144.78947 Z M1027.58035,1158.54887 C1021.71569,1155.16541 1019.68561,1147.49624 1023.06907,1141.63158 C1026.45253,1135.76692 1034.1217,1133.73684 1039.98637,1137.1203 L1092.54276,1168.69925 C1098.40742,1172.08271 1100.43749,1179.75188 1097.05404,1185.61654 C1094.57283,1189.45113 1090.51268,1191.70677 1086.22697,1191.70677 C1084.19689,1191.70677 1081.94125,1191.25564 1080.13674,1190.12782 L1027.58035,1158.54887 Z M1086.22697,1230.2782 C1092.99389,1230.2782 1098.63298,1235.91729 1098.63298,1242.68421 L1098.63298,1253.96241 C1098.63298,1260.72932 1092.99389,1266.36842 1086.22697,1266.36842 C1079.23449,1266.36842 1073.82095,1260.72932 1073.82095,1253.96241 L1073.82095,1242.68421 C1073.82095,1235.91729 1079.46005,1230.2782 1086.22697,1230.2782 Z M1045.62546,1270.20301 C1052.39238,1270.20301 1058.03148,1275.84211 1058.03148,1282.60902 L1058.03148,1300.20301 C1058.03148,1306.96992 1052.39238,1312.60902 1045.62546,1312.60902 C1038.63298,1312.60902 1033.21945,1306.96992 1033.21945,1300.20301 L1033.21945,1282.60902 C1033.21945,1275.84211 1038.85855,1270.20301 1045.62546,1270.20301 Z M954.723209,1165.31579 C948.858547,1161.93233 946.828472,1154.26316 950.211931,1148.3985 C953.595389,1142.53383 961.264562,1140.50376 967.129224,1143.88722 L992.392382,1158.32331 C998.257043,1161.70677 1000.28712,1169.37594 996.90366,1175.2406 C994.648021,1179.07519 990.58787,1181.33083 986.302156,1181.33083 C984.272081,1181.33083 982.016442,1180.8797 979.986367,1179.75188 L954.723209,1165.31579 Z M1009.30967,1216.29323 C1013.36983,1218.54887 1015.85103,1222.60902 1015.62546,1227.1203 L1015.62546,1244.71429 C1015.62546,1251.70677 1009.98637,1257.1203 1003.21945,1257.1203 C996.226968,1257.1203 990.813434,1251.4812 990.813434,1244.71429 L990.813434,1234.56391 L987.429976,1232.7594 C987.204412,1232.7594 987.204412,1232.53383 986.978848,1232.53383 L954.272081,1214.93985 C948.407419,1211.55639 946.15178,1204.11278 949.309675,1198.02256 C952.693134,1192.15789 960.136743,1189.90226 966.226968,1193.06015 L1002.99389,1212.90977 C1002.99389,1212.90977 1003.21945,1213.13534 1003.44501,1213.13534 L1009.30967,1216.29323 Z M1015.62546,1173.66165 C1022.39238,1173.66165 1028.03148,1179.30075 1028.03148,1186.06767 L1028.03148,1187.19549 C1028.03148,1194.18797 1022.39238,1199.6015 1015.62546,1199.6015 C1008.63298,1199.6015 1003.21945,1193.96241 1003.21945,1187.19549 L1003.21945,1186.06767 C1003.21945,1179.30075 1008.85855,1173.66165 1015.62546,1173.66165 Z M1212.31719,1251.93233 C1205.46554,1251.93233 1199.91118,1246.37797 1199.91118,1239.52632 C1199.91118,1232.67466 1205.46554,1227.1203 1212.31719,1227.1203 C1219.16885,1227.1203 1224.72321,1232.67466 1224.72321,1239.52632 C1224.72321,1246.37797 1219.16885,1251.93233 1212.31719,1251.93233 Z M1297.35479,1263.43609 C1290.50313,1263.43609 1284.94877,1257.88173 1284.94877,1251.03008 C1284.94877,1244.17842 1290.50313,1238.62406 1297.35479,1238.62406 C1304.20644,1238.62406 1309.7608,1244.17842 1309.7608,1251.03008 C1309.7608,1257.88173 1304.20644,1263.43609 1297.35479,1263.43609 Z M1128.18186,973.81203 C1121.3302,973.81203 1115.77584,968.257668 1115.77584,961.406015 C1115.77584,954.554362 1121.3302,949 1128.18186,949 C1135.03351,949 1140.58787,954.554362 1140.58787,961.406015 C1140.58787,968.257668 1135.03351,973.81203 1128.18186,973.81203 Z M1128.18186,1297.7218 C1121.3302,1297.7218 1115.77584,1292.16744 1115.77584,1285.31579 C1115.77584,1278.46414 1121.3302,1272.90977 1128.18186,1272.90977 C1135.03351,1272.90977 1140.58787,1278.46414 1140.58787,1285.31579 C1140.58787,1292.16744 1135.03351,1297.7218 1128.18186,1297.7218 Z M1086.22697,1224.41353 C1079.37532,1224.41353 1073.82095,1218.85917 1073.82095,1212.00752 C1073.82095,1205.15587 1079.37532,1199.6015 1086.22697,1199.6015 C1093.07862,1199.6015 1098.63298,1205.15587 1098.63298,1212.00752 C1098.63298,1218.85917 1093.07862,1224.41353 1086.22697,1224.41353 Z M1003.21945,1288.24812 C996.367796,1288.24812 990.813434,1282.69376 990.813434,1275.84211 C990.813434,1268.99045 996.367796,1263.43609 1003.21945,1263.43609 C1010.0711,1263.43609 1015.62546,1268.99045 1015.62546,1275.84211 C1015.62546,1282.69376 1010.0711,1288.24812 1003.21945,1288.24812 Z M961.038998,1119.75188 C954.187345,1119.75188 948.632983,1114.19752 948.632983,1107.34586 C948.632983,1100.49421 954.187345,1094.93985 961.038998,1094.93985 C967.890651,1094.93985 973.445013,1100.49421 973.445013,1107.34586 C973.445013,1114.19752 967.890651,1119.75188 961.038998,1119.75188 Z M1171.26456,1336.29323 C1164.41291,1336.29323 1158.85855,1330.73887 1158.85855,1323.88722 C1158.85855,1317.03557 1164.41291,1311.4812 1171.26456,1311.4812 C1178.11622,1311.4812 1183.67058,1317.03557 1183.67058,1323.88722 C1183.67058,1330.73887 1178.11622,1336.29323 1171.26456,1336.29323 Z" id="symbol-gradient"></path>
        </g>
    </g>
</svg>